<svg id="Layer_1" enable-background="new 0 0 512 512" viewBox="0 0 512 512" xmlns="http://www.w3.org/2000/svg"><g id="Layer_2_00000163066981150036175810000004545271000277847709_"><g id="user_setting"><path d="m36 512c-19.9 0-36-16.1-36-36v-53.3c0-106.8 86.9-193.6 193.6-193.6 27.8-.1 55.2 5.9 80.5 17.5l22.7 10.4-23.6 8.2c-7.4 2.6-13.7 7.7-17.6 14.5l-17.3 30c-8.2 14.3-4.5 32.5 8.6 42.4l12.8 9.6-.1 5.1v2.7s0 1.7 0 2.6l.1 5.1-4.1 3.1-8.7 6.6c-13.2 9.9-16.9 28.1-8.6 42.3l17.3 30c8.2 14.3 25.8 20.1 41 13.7l14.8-6.3 4.4 2.7c1.4.9 2.9 1.7 4.6 2.6l4.5 2.5 1.9 15.9c.3 2.8 1 5.5 2 8.1l5.4 13.6z"/><path d="m315.5 480.6c-1.7-.9-3.3-1.9-5-2.9l-10 4.3c-19.8 8.4-42.8.8-53.6-17.9l-17.3-30c-10.7-18.6-5.9-42.4 11.3-55.3l8.7-6.6c0-1 0-1.9 0-2.9s0-1.9 0-2.9l-8.7-6.6c-17.2-12.9-22.1-36.7-11.3-55.3l17.3-30c5.1-8.9 13.3-15.6 23-19-23.9-10.9-50-16.6-76.3-16.6-101.4.2-183.6 82.4-183.6 183.8v53.3c0 14.4 11.6 26 26 26h283.5c-1.3-3.4-2.2-6.9-2.7-10.5z" fill="#f6794f"/><circle cx="193.6" cy="110.8" r="110.8"/><circle cx="193.6" cy="110.8" fill="#f6794f" r="100.8"/><path d="m359.1 512c-13 0-23.9-9.7-25.5-22.6l-2.4-19.9c-6.7-3-13-6.7-18.9-10.9l-18.4 7.9c-3.2 1.4-6.6 2.1-10 2.1-9.2 0-17.6-4.9-22.2-12.8l-17.3-30c-6.5-11.2-3.6-25.6 6.8-33.4l16-12c-.4-3.6-.5-7.3-.5-10.9s.2-7.3.5-10.9l-16-12c-10.4-7.8-13.3-22.1-6.8-33.4l17.3-30c4.6-7.9 13.1-12.8 22.2-12.8 3.5 0 6.9.7 10 2.1l18.4 7.9c5.9-4.3 12.3-7.9 18.9-10.9l2.4-19.9c1.6-12.9 12.5-22.6 25.5-22.6h34.7c13 0 23.9 9.7 25.5 22.6l2.4 19.9c6.7 3 13 6.7 18.9 10.9l18.4-7.9c3.2-1.4 6.6-2.1 10.1-2.1 9.2 0 17.6 4.9 22.2 12.8l17.3 30c6.5 11.2 3.6 25.5-6.8 33.4l-16 12c.4 3.6.5 7.3.5 10.9s-.2 7.3-.5 10.9l16 12c10.4 7.8 13.3 22.1 6.8 33.4l-17.3 30c-4.6 8-13 12.9-22.2 12.9-3.5 0-6.9-.7-10.1-2.1l-18.4-7.9c-5.9 4.3-12.3 7.9-18.9 10.9l-2.4 19.9c-1.6 12.9-12.5 22.6-25.5 22.6h-34.7zm17.3-170.1c-15.2 0-27.5 12.3-27.5 27.5s12.3 27.5 27.5 27.5 27.5-12.3 27.5-27.5c-.1-15.2-12.4-27.5-27.5-27.5z"/><path d="m495.7 400.3-20.6-15.5c1.6-10.2 1.6-20.6 0-30.9l20.6-15.5c6.3-4.8 8.1-13.5 4.2-20.4l-17.3-30c-4-6.9-12.4-9.7-19.7-6.6l-23.8 10.1c-8.1-6.5-17.1-11.7-26.7-15.4l-3.1-25.6c-1-7.9-7.6-13.8-15.5-13.8h-34.7c-7.9 0-14.6 5.9-15.5 13.8l-3.1 25.6c-9.7 3.7-18.7 8.9-26.7 15.4l-23.8-10.2c-7.3-3.1-15.7-.3-19.7 6.6l-17.3 30c-4 6.9-2.2 15.6 4.1 20.4l20.6 15.5c-1.6 10.2-1.6 20.6 0 30.9l-20.7 15.6c-6.3 4.8-8.1 13.5-4.1 20.4l17.3 30c4 6.9 12.4 9.7 19.7 6.6l23.8-10.1c8 6.5 17.1 11.7 26.7 15.4l3.1 25.6c.9 7.9 7.6 13.8 15.6 13.8h34.7c7.9 0 14.6-5.9 15.5-13.8l3.1-25.6c9.7-3.7 18.7-8.9 26.7-15.4l23.8 10.1c7.3 3.1 15.7.3 19.7-6.6l17.3-30c4-6.9 2.2-15.6-4.2-20.4zm-119.3 6.5c-20.7 0-37.5-16.8-37.5-37.5s16.8-37.5 37.5-37.5 37.5 16.8 37.5 37.5c0 20.8-16.8 37.5-37.5 37.5z" fill="#f6794f"/></g></g></svg>